<?xml version="1.0" encoding="UTF-8"?>
<svg xmlns="http://www.w3.org/2000/svg" xmlns:xlink="http://www.w3.org/1999/xlink" width="2500px" height="2183px" viewBox="0 0 1940 2183" version="1.1">
<g id="surface1">
<path style=" stroke:none;fill-rule:nonzero;fill:rgb(63.137255%,47.45098%,86.27451%);fill-opacity:1;" d="M 1931.378906 646.226562 C 1931.363281 609.882812 1923.589844 577.769531 1907.875 550.210938 C 1892.433594 523.101562 1869.3125 500.382812 1838.300781 482.421875 C 1582.304688 334.792969 1326.058594 187.617188 1070.140625 39.835938 C 1001.148438 0 934.253906 1.460938 865.773438 41.867188 C 763.878906 101.960938 253.726562 394.277344 101.707031 482.339844 C 39.101562 518.59375 8.636719 574.066406 8.621094 646.160156 C 8.523438 943.050781 8.621094 1239.941406 8.523438 1536.832031 C 8.523438 1572.378906 15.980469 1603.878906 31.003906 1631.019531 C 46.453125 1658.945312 69.894531 1682.285156 101.625 1700.652344 C 253.648438 1788.714844 763.871094 2081.007812 865.742188 2141.125 C 934.253906 2181.554688 1001.148438 2183 1070.164062 2143.15625 C 1326.085938 1995.371094 1582.347656 1848.191406 1838.382812 1700.5625 C 1870.113281 1682.203125 1893.554688 1658.847656 1909 1630.945312 C 1924.003906 1603.792969 1931.476562 1572.304688 1931.476562 1536.75 C 1931.476562 1536.75 1931.476562 943.125 1931.378906 646.226562 "/>
<path style=" stroke:none;fill-rule:nonzero;fill:rgb(15.686275%,0%,40.784314%);fill-opacity:1;" d="M 972.941406 1088.601562 L 31.003906 1631.019531 C 46.453125 1658.945312 69.894531 1682.285156 101.625 1700.652344 C 253.648438 1788.714844 763.871094 2081.007812 865.742188 2141.125 C 934.253906 2181.554688 1001.148438 2183 1070.164062 2143.15625 C 1326.085938 1995.371094 1582.347656 1848.191406 1838.382812 1700.5625 C 1870.113281 1682.203125 1893.554688 1658.847656 1909 1630.945312 Z M 972.941406 1088.601562 "/>
<path style=" stroke:none;fill-rule:nonzero;fill:rgb(22.352941%,0%,56.862745%);fill-opacity:1;" d="M 1931.378906 646.226562 C 1931.363281 609.882812 1923.589844 577.769531 1907.875 550.210938 L 972.941406 1088.609375 L 1909 1630.945312 C 1924.003906 1603.792969 1931.460938 1572.304688 1931.476562 1536.75 C 1931.476562 1536.75 1931.476562 943.125 1931.378906 646.226562 "/>
<path style=" stroke:none;fill-rule:nonzero;fill:rgb(100%,100%,100%);fill-opacity:1;" d="M 1527.523438 885.832031 L 1527.523438 987.222656 L 1628.898438 987.222656 L 1628.898438 885.832031 L 1679.585938 885.832031 L 1679.585938 987.222656 L 1780.960938 987.222656 L 1780.960938 1037.914062 L 1679.585938 1037.914062 L 1679.585938 1139.296875 L 1780.960938 1139.296875 L 1780.960938 1189.992188 L 1679.585938 1189.992188 L 1679.585938 1291.378906 L 1628.898438 1291.378906 L 1628.898438 1189.992188 L 1527.523438 1189.992188 L 1527.523438 1291.378906 L 1476.835938 1291.378906 L 1476.835938 1189.992188 L 1375.464844 1189.992188 L 1375.464844 1139.296875 L 1476.835938 1139.296875 L 1476.835938 1037.914062 L 1375.464844 1037.914062 L 1375.464844 987.222656 L 1476.835938 987.222656 L 1476.835938 885.832031 Z M 1628.898438 1037.910156 L 1527.523438 1037.910156 L 1527.523438 1139.296875 L 1628.898438 1139.296875 Z M 1628.898438 1037.910156 "/>
<path style=" stroke:none;fill-rule:nonzero;fill:rgb(100%,100%,100%);fill-opacity:1;" d="M 975.011719 376.644531 C 1239.429688 376.644531 1470.28125 520.261719 1593.933594 733.742188 L 1592.730469 731.6875 L 1281.621094 910.835938 C 1220.332031 807.046875 1107.972656 737 979.066406 735.554688 L 975.003906 735.53125 C 778.445312 735.53125 619.089844 894.90625 619.089844 1091.492188 C 619.023438 1153.453125 635.210938 1214.347656 666.03125 1268.097656 C 727.378906 1375.214844 842.710938 1447.460938 975.011719 1447.460938 C 1108.128906 1447.460938 1224.117188 1374.296875 1285.148438 1266.039062 L 1283.667969 1268.632812 L 1594.304688 1448.609375 C 1472.003906 1660.285156 1244.3125 1803.457031 982.972656 1806.308594 L 975.011719 1806.355469 C 709.757812 1806.355469 478.25 1661.847656 354.90625 1447.242188 C 294.691406 1342.472656 260.242188 1221.015625 260.242188 1091.492188 C 260.242188 696.695312 580.242188 376.636719 975.003906 376.636719 Z M 975.011719 376.644531 "/>
</g>
</svg>
